max v2;
#N vpatcher 774 110 1362 400;
#P window setfont Monaco 9.;
#P hidden newex 167 52 46 262153 change;
#P hidden message 208 218 20 262153 $2;
#N comlet value on click;
#P hidden outlet 208 242 15 0;
#P hidden newex 167 72 52 262153 sel 0 1;
#N comlet 0/1: show as selected;
#P hidden inlet 167 34 15 0;
#P hidden message 167 116 328 262153 setfont Impact 24 \, brgb 255 255 255 \, frgb 180 180 180;
#P hidden message 188 94 292 262153 setfont Impact 36 \, brgb 0 0 0 \, frgb 255 255 255;
#P hidden button 208 194 15 0;
#P user ubutton 208 139 40 40 0 0;
#P user jsui 208 139 40 40 1 0 0 net.loadbang.gui.TextBrick.js $1;
#J statemessage setdirection right;
#J statemessage setalignment centre;
#J statemessage setfont Impact 24;
#J statemessage nativeFRGB 0.705882 0.705882 0.705882;
#J statemessage nativeBRGB 1 1 1;
#P window linecount 2;
#P hidden comment 319 32 100 262153 $1 = label $2 = value;
#P hidden comment 194 26 100 262153 0/1: show as selected;
#P window linecount 1;
#P hidden comment 232 241 100 262153 value on click;
#P hidden connect 8 0 12 0;
#P hidden connect 12 0 9 0;
#P hidden connect 9 0 7 0;
#P hidden connect 9 1 6 0;
#P hidden connect 6 0 3 0;
#P hidden connect 7 0 3 0;
#P hidden connect 4 0 5 0;
#P hidden connect 5 0 11 0;
#P hidden connect 11 0 10 0;
#P pop;
