max v2;
#N vpatcher 141 82 857 592;
#P window setfont Monaco 9.;
#P window linecount 1;
#N vpatcher 1016 270 1363 764;
#P window setfont Monaco 9.;
#P newex 184 215 70 262153 loadmess 1;
#P newex 184 255 64 262153 autopattr;
#X prestore MULTISLIDEREXAMPLE 25 0 TextBrick.PATTR.1 10 1 OSC 1 FM 1 WG 1 VCF 1 VCA 1 ENV 2 LFO 1 2 LFO 2 2 BBC TV 1 CSI:NY;
#P objectname u639000005;
#P newex 184 235 100 262153 pattrstorage MS;
#X autorestore gui.TextBrickHelp-MS.xml;
#X client_rect 84 566 796 798;
#X storage_rect 88 251 728 491;
#P objectname MS;
#P user jsui 38 35 127 43 0 0 0 net.loadbang.gui.TextBrick.js;
#J statemessage setdirection up;
#J statemessage setalignment left;
#J statemessage setfont Monaco 9;
#J statemessage nativeFRGB 1 1 1;
#J statemessage nativeBRGB 0 0.278431 0.4;
#P objectname MULTISLIDEREXAMPLE;
#P hidden newex 182 84 58 262153 loadbang;
#P newex 247 422 34 262153 !- 9;
#P window linecount 1;
#P newex 199 442 106 262153 pack setitem 0 0;
#P user jsui 39 191 126 30 0 0 0 net.loadbang.gui.TextBrick.js;
#J statemessage setdirection down;
#J statemessage setalignment left;
#J statemessage setfont Monaco 9;
#J statemessage nativeFRGB 0.980392 1 0.196078;
#J statemessage nativeBRGB 0 0.278431 0.4;
#P window linecount 0;
#P newex 36 440 106 262153 pack setitem 0 0;
#P newex 134 307 52 262153 t b b i;
#P newex 91 244 40 262153 t l b;
#P message 121 281 40 262153 set 0;
#N counter;
#X flags 0 0;
#P newobj 121 382 66 262153 counter;
#P newex 85 280 34 262153 iter;
#P hidden message 182 106 112 262153 setsize 10 \, clear;
#P user jsui 38 78 127 30 0 0 0 net.loadbang.gui.TextBrick.js;
#J statemessage setdirection up;
#J statemessage setalignment left;
#J statemessage setfont Monaco 9;
#J statemessage nativeFRGB 0.980392 1 0.196078;
#J statemessage nativeBRGB 0 0.278431 0.4;
#P user multiSlider 38 108 126 83 0. 127. 10 2665 32 0 0 2 0 20 0;
#M frgb 250 255 50;
#M brgb 0 71 102;
#M rgb2 127 127 127;
#M rgb3 0 0 0;
#M rgb4 37 52 91;
#M rgb5 74 105 182;
#M rgb6 112 158 18;
#M rgb7 149 211 110;
#M rgb8 187 9 201;
#M rgb9 224 62 37;
#M rgb10 7 114 128;
#P user panel 34 32 135 192;
#X brgb 0 71 102;
#X frgb 0 0 0;
#X border 2;
#X rounded 0;
#X shadow 0;
#X done;
#P comment 181 134 100 262153 Refresh a bit sluggish: multiSlider sends all values at once!;
#P comment 201 344 97 262153 Items ordered by the sense of the text (so direction=down means R-to-L);
#P comment 207 278 90 262153 Labels stored in pattr;
#P connect 11 0 12 0;
#P hidden fasten 12 0 5 0 41 463 14 463 14 61 43 61;
#P hidden connect 6 0 5 0;
#P hidden fasten 14 0 13 0 204 462 316 462 316 201 44 201;
#P hidden connect 6 0 13 0;
#P connect 8 0 12 1;
#P connect 10 0 7 0;
#P hidden connect 4 0 10 0;
#P connect 10 1 9 0;
#P connect 9 0 8 0;
#P connect 11 1 8 0;
#P connect 11 2 12 2;
#P connect 7 0 11 0;
#P hidden connect 16 0 6 0;
#P connect 20 0 18 0;
#P connect 11 0 14 0;
#P connect 8 0 15 0;
#P connect 15 0 14 1;
#P fasten 11 2 14 2 181 333 300 333;
#P pop;
#P newobj 513 227 130 262153 p MultiSliderExample;
#P objectname MultiSliderExample;
#P hidden newex 638 101 136 262153 sprintf setfont %s 30;
#P hidden newex 646 78 136 262153 sprintf setfont %s 20;
#P user ubumenu 513 130 100 262153 0 1 1 0;
#X add Arial;
#X add Verdana;
#X add Tahoma;
#X add Optima;
#X prefix_set 0 0 <none> 0;
#N vpatcher 367 79 842 323;
#P window setfont Monaco 9.;
#P window linecount 1;
#P newex 50 51 58 262153 loadbang;
#P window linecount 2;
#P message 50 119 161 262153 setsize 1 \, clear \, append CASSIEL: Listen/Move;
#P window linecount 1;
#P newex 227 123 82 262153 route symbol;
#P newex 323 154 94 262153 prepend append;
#P button 50 72 15 0;
#P message 80 173 112 262153 setsize 17 \, clear;
#P newex 50 92 40 262153 t b b;
#P newex 227 154 94 262153 prepend append;
#P newex 191 77 46 262153 Uzi 17;
#N coll gui.TextBrickHelp-LM.coll;
#P newobj 227 99 190 262153 coll gui.TextBrickHelp-LM.coll;
#P window linecount 3;
#P comment 265 36 178 262153 A hand-rolled example (although it's easier to put the content into a pattr).;
#P outlet 50 194 15 0;
#P outlet 323 176 15 0;
#P outlet 80 193 15 0;
#P outlet 227 176 15 0;
#P connect 14 0 10 0;
#P connect 10 0 8 0;
#P connect 8 0 13 0;
#P connect 13 0 3 0;
#P connect 8 1 9 0;
#P connect 9 0 1 0;
#P connect 8 0 6 0;
#P connect 6 2 5 0;
#P connect 5 0 12 0;
#P fasten 12 1 7 0 304 147 232 147;
#P connect 12 0 7 0;
#P connect 7 0 0 0;
#P fasten 5 1 11 0 292 119 328 119;
#P connect 11 0 2 0;
#P pop;
#P newobj 27 42 82 262153 p SplashPage;
#P comment 168 37 288 262153 TextBrick: programmable text blocks for Max/MSP;
#P comment 168 49 327 262153 Nick Rothwell \, nick@cassiel.com / nick@loadbang.net;
#P comment 168 61 253 262153 Download from: http://www.loadbang.net;
#P user panel 165 34 332 43;
#X brgb 255 255 255;
#X frgb 0 0 0;
#X border 2;
#X rounded 0;
#X shadow 0;
#X done;
#N vpatcher 745 367 1111 760;
#P user jsui 104 147 196 16 0 0 0 net.loadbang.gui.TextBrick.js;
#J statemessage setdirection right;
#J statemessage setalignment right;
#J statemessage setfont Impact 12;
#J statemessage nativeFRGB 1 1 1;
#J statemessage nativeBRGB 0.533333 0.533333 0.533333;
#P window setfont Monaco 9.;
#P window linecount 1;
#P message 23 59 280 262153 setsize 1 \, clear \, append Big Friendly Buttons;
#P newex 23 37 58 262153 loadbang;
#P message 104 343 34 262153 \$1 1;
#P newex 240 105 66 262153 spray 5;
#P number 104 318 27 9 0 0 164 4 0 0 0 221 221 221 222 222 222 0 0 0;
#P window linecount 0;
#P message 124 105 14 262153 0;
#P newex 104 294 40 262153 t i b;
#P bpatcher 260 163 40 40 -208 -139 gui.TextBrick-LabelClicker.mxt 0 E 4;
#P bpatcher 221 163 40 40 -208 -139 gui.TextBrick-LabelClicker.mxt 0 D 3;
#P bpatcher 182 163 40 40 -208 -139 gui.TextBrick-LabelClicker.mxt 0 C 2;
#P bpatcher 143 163 40 40 -208 -139 gui.TextBrick-LabelClicker.mxt 0 B 1;
#P bpatcher 104 163 40 40 -208 -139 gui.TextBrick-LabelClicker.mxt 0 A 0;
#P comment 185 266 100 262153 This will probably look a bit crap if you don't have the Impact font;
#P connect 11 0 12 0;
#P hidden connect 12 0 13 0;
#P hidden connect 7 0 1 0;
#P hidden connect 9 0 1 0;
#P connect 1 0 6 0;
#P connect 2 0 6 0;
#P connect 3 0 6 0;
#P connect 4 0 6 0;
#P connect 5 0 6 0;
#P connect 6 0 8 0;
#P connect 8 0 10 0;
#P hidden fasten 6 1 7 0 139 338 89 338 89 101 129 101;
#P hidden connect 7 0 2 0;
#P hidden connect 9 1 2 0;
#P hidden connect 7 0 3 0;
#P hidden connect 9 2 3 0;
#P hidden connect 7 0 4 0;
#P hidden connect 9 3 4 0;
#P hidden fasten 10 0 9 0 109 366 68 366 68 96 245 96;
#P hidden connect 9 4 5 0;
#P hidden connect 7 0 5 0;
#P pop;
#P newobj 513 245 130 262153 p BigFriendlyButtons;
#N vpatcher 331 266 790 695;
#P window setfont Monaco 9.;
#P window linecount 1;
#P message 191 296 124 262153 setitem 13 DREIZEHN;
#P message 191 279 94 262153 setitem 3 TROI;
#P window linecount 0;
#P message 191 262 88 262153 setitem 1 ONE;
#P number 191 47 35 9 1 20 7 4 0 0 0 221 221 221 222 222 222 0 0 0;
#P message 191 66 70 262153 setsize \$1;
#P window linecount 1;
#P message 191 214 76 262153 append Test;
#P message 191 197 88 262153 append I am a;
#P message 191 180 82 262153 append World;
#P window linecount 0;
#P message 191 163 82 262153 append Hello;
#P message 191 142 40 262153 clear;
#P user jsui 20 31 152 296 1 0 0 net.loadbang.gui.TextBrick.js;
#J statemessage setdirection right;
#J statemessage setalignment left;
#J statemessage setfont Optima 30;
#J statemessage nativeFRGB 1 1 1;
#J statemessage nativeBRGB 0 0.603922 0.501961;
#P comment 266 35 100 262153 Set the number of lines (data beyond these lines is lost \, although the append point moves on);
#P comment 276 127 161 262153 Clear all lines (preserving the size) \, set the append point to the start;
#P comment 288 253 100 262153 Explicitly set an item (if it's in range);
#P comment 54 374 221 262153 Size and content are not saved in the patcher - save them using pattr;
#P hidden connect 6 0 4 0;
#P hidden connect 7 0 4 0;
#P hidden connect 8 0 4 0;
#P hidden connect 9 0 4 0;
#P hidden connect 5 0 4 0;
#P hidden connect 10 0 4 0;
#P hidden connect 12 0 4 0;
#P hidden connect 13 0 4 0;
#P hidden connect 14 0 4 0;
#P connect 11 0 10 0;
#P pop;
#P newobj 513 191 100 262153 p SettingValues;
#N vpatcher 415 398 1031 715;
#P window setfont Monaco 9.;
#P user ubumenu 287 37 100 262153 0 1 1 0;
#X add left;
#X add right;
#X add centre;
#X prefix_set 0 0 <none> 0;
#P window linecount 1;
#P newex 332 57 130 262153 prepend setalignment;
#P user ubumenu 339 104 100 262153 0 1 1 0;
#X add right;
#X add up;
#X add down;
#X prefix_set 0 0 <none> 0;
#P window linecount 0;
#P newex 384 125 130 262153 prepend setdirection;
#P button 20 48 15 0;
#P button 117 47 15 0;
#P window linecount 5;
#P message 20 66 95 262153 setsize 4 \, clear \, append This \, append is \, append a \, append Test;
#P window linecount 0;
#P newex 117 27 58 262153 loadbang;
#P message 117 66 101 262153 setsize 2 \, clear \, append Hello \, append World;
#P user jsui 216 187 149 94 1 0 0 net.loadbang.gui.TextBrick.js;
#J statemessage setdirection up;
#J statemessage setalignment centre;
#J statemessage setfont Verdana 15;
#J statemessage nativeFRGB 0.462745 0.890196 1;
#J statemessage nativeBRGB 0.133333 0.372549 1;
#P comment 374 249 172 262153 Direction and alignment are *saved in the patcher*;
#P comment 485 35 100 262153 Direction and alignment are independent: try all the combinations...;
#P connect 7 0 5 0;
#P connect 4 0 6 0;
#P connect 6 0 3 0;
#P connect 10 0 2 0;
#P connect 8 0 2 0;
#P connect 5 0 2 0;
#P connect 3 0 2 0;
#P connect 11 1 10 0;
#P connect 9 1 8 0;
#P pop;
#P newobj 513 155 148 262153 p DirectionAndAlignment;
#N vpatcher 786 163 1374 406;
#P window setfont Monaco 9.;
#P number 243 51 35 9 1 5 7 4 0 0 0 221 221 221 222 222 222 0 0 0;
#P user jsui 171 158 363 24 0 0 0 net.loadbang.gui.TextBrick.js Or: do a <<Get Info>> to set a single line of t-e-x-t as an argument;
#J statemessage setdirection right;
#J statemessage setalignment centre;
#J statemessage setfont Impact 12;
#J statemessage nativeFRGB 1 1 1;
#J statemessage nativeBRGB 0.556863 0.243137 0.243137;
#P user jsui 50 46 139 89 0 0 0 net.loadbang.gui.TextBrick.js;
#J statemessage setdirection right;
#J statemessage setalignment left;
#J statemessage setfont Impact 12;
#J statemessage nativeFRGB 0 0.05098 0.603922;
#J statemessage nativeBRGB 0.733333 0.733333 0.733333;
#P objectname TRACYS;
#P window linecount 1;
#P newex 265 69 70 262153 loadmess 1;
#P newex 265 119 64 262153 autopattr;
#X prestore TRACYS 8 0 TextBrick.PATTR.1 5 1 Scott 0 0 0 0;
#P objectname u097000007;
#P newex 265 99 160 262153 pattrstorage PattrExample;
#X autorestore gui.TextBrickHelp-P.xml;
#X client_rect 0 0 640 240;
#X storage_rect 10 59 650 299;
#P objectname PattrExample;
#P window linecount 0;
#P comment 55 141 100 262153 Note that the number of lines is saved \, even if not all are used;
#P connect 3 0 1 0;
#P fasten 6 0 1 0 248 92 270 92;
#P pop;
#P newobj 513 209 142 262153 p SavingContentInPattr;
#P objectname SavingContentInPattr;
#N vpatcher 153 166 868 700;
#P window setfont Monaco 9.;
#P number 466 37 35 9 0 255 7 4 0 0 0 221 221 221 222 222 222 0 0 0;
#P window linecount 1;
#P message 466 55 88 262153 saturation \$1;
#P number 336 37 35 9 0 255 7 4 0 0 0 221 221 221 222 222 222 0 0 0;
#P message 336 55 88 262153 saturation \$1;
#P message 159 146 118 262153 setfont Zapfino \$1;
#P number 159 127 35 9 5 500 7 4 0 0 0 221 221 221 222 222 222 0 0 0;
#P newex 466 115 82 262153 prepend brgb;
#P user swatch 466 78 128 32;
#P newex 336 115 82 262153 prepend frgb;
#P user swatch 336 78 128 32;
#P window linecount 2;
#P comment 378 418 172 262153 Colours and font settings are *saved in the patcher*;
#P window linecount 1;
#P message 217 111 112 262153 setfont Optima \$1;
#P number 217 92 35 9 5 500 7 4 0 0 0 221 221 221 222 222 222 0 0 0;
#P newex 84 85 100 262153 prepend setfont;
#P user ubumenu 39 65 100 262153 0 1 1 0;
#X add Optima 60;
#X add Courier 60;
#X add Monaco 60;
#X add Chicago 60;
#X add Zapfino 50;
#X prefix_set 0 0 <none> 0;
#P button 20 234 15 0;
#P newex 20 214 58 262153 loadbang;
#P window linecount 4;
#P message 20 253 101 262153 setsize 2 \, clear \, append Hello \, append World;
#P user jsui 184 204 369 207 1 0 0 net.loadbang.gui.TextBrick.js;
#J statemessage setdirection right;
#J statemessage setalignment centre;
#J statemessage setfont Zapfino 50;
#J statemessage nativeFRGB 0 0.098039 0.533333;
#J statemessage nativeBRGB 0.74902 0.854902 0.839216;
#P window linecount 5;
#P comment 195 30 132 262153 How smooth is your TrueType? (Beware: scrolling through lots of font sizes will eat RAM...);
#P window linecount 3;
#P comment 178 418 198 262153 Sorry about the off-screen-ness of Zapfino: perhaps I need an offset command...;
#P connect 4 0 5 0;
#P connect 5 0 3 0;
#P connect 6 1 7 0;
#P connect 15 0 16 0;
#P connect 16 0 2 0;
#P connect 12 0 2 0;
#P connect 14 0 2 0;
#P connect 9 0 2 0;
#P connect 7 0 2 0;
#P connect 3 0 2 0;
#P connect 8 0 9 0;
#P connect 18 0 17 0;
#P connect 17 0 11 0;
#P connect 11 0 12 0;
#P connect 20 0 19 0;
#P connect 19 0 13 0;
#P connect 13 0 14 0;
#P pop;
#P newobj 513 173 112 262153 p ColoursAndFonts;
#P user jsui 121 80 376 48 0 0 0 net.loadbang.gui.TextBrick.js;
#J statemessage setdirection right;
#J statemessage setalignment centre;
#J statemessage setfont Optima 30;
#J statemessage nativeFRGB 1 1 1;
#J statemessage nativeBRGB 0.039216 0.470588 0;
#P objectname TITLES[2];
#P user jsui 121 127 376 36 0 0 0 net.loadbang.gui.TextBrick.js;
#J statemessage setdirection down;
#J statemessage setalignment right;
#J statemessage setfont Optima 20;
#J statemessage nativeFRGB 0 0 0;
#J statemessage nativeBRGB 0.039216 0.470588 0;
#P objectname TITLES[1];
#P user jsui 121 162 376 313 0 0 0 net.loadbang.gui.TextBrick.js;
#J statemessage setdirection down;
#J statemessage setalignment left;
#J statemessage setfont Optima 20;
#J statemessage nativeFRGB 0.992157 1 0.533333;
#J statemessage nativeBRGB 0.039216 0.470588 0;
#P objectname TITLES;
#P window linecount 4;
#P comment 510 82 102 262153 If you're stuck with Windows and don't have the Optima font:;
#P hidden connect 13 0 3 0;
#P hidden connect 16 0 3 0;
#P hidden connect 13 1 2 0;
#P hidden connect 13 3 2 0;
#P hidden connect 15 0 2 0;
#P hidden connect 13 2 1 0;
#P hidden connect 13 1 1 0;
#P hidden connect 15 0 1 0;
#P hidden connect 14 1 16 0;
#P hidden connect 14 1 15 0;
#P pop;
